<svg xmlns="http://www.w3.org/2000/svg" width="43.685" height="43.3" viewBox="0 0 43.685 43.3"><path d="M6.444,32.181a5.344,5.344,0,0,0,3.742-1.7,5.33,5.33,0,0,0,1.542-3.811,5.5,5.5,0,0,0,5.262,5.512,5.5,5.5,0,0,0-5.262,5.512,5.238,5.238,0,0,0-1.542-3.811A5.344,5.344,0,0,0,6.444,32.181ZM11.729,15.85a10.424,10.424,0,0,0,7.281-3.334A10.383,10.383,0,0,0,22,5.076,10.383,10.383,0,0,0,25,12.516a10.527,10.527,0,0,0,7.3,3.334,10.513,10.513,0,0,0-5.194,1.61,10.9,10.9,0,0,0-3.742,3.924A10.666,10.666,0,0,0,22,26.669a10.435,10.435,0,0,0-2.994-7.462A10.356,10.356,0,0,0,11.729,15.85Zm7.53,24.428a8.1,8.1,0,0,0,7.734-8.1,8.1,8.1,0,0,0,7.712,8.1,8.1,8.1,0,0,0-7.712,8.1,7.811,7.811,0,0,0-2.245-5.6A7.946,7.946,0,0,0,19.259,40.278ZM34.706,29.527a8.063,8.063,0,0,0,7.689-8.12,8.1,8.1,0,0,0,7.734,8.1,8.1,8.1,0,0,0-7.734,8.1,8.022,8.022,0,0,0-7.689-8.075Z" transform="translate(-6.444 -5.076)" fill="#373737"/></svg>