<svg xmlns="http://www.w3.org/2000/svg" width="29.117" height="32.497" viewBox="0 0 29.117 32.497"><path d="M21.345,13.025c1.924,1.935,3.493,5.1,2.6,6.976C21.533,25.031,3.575,33.847,2.047,32.323s7.3-19.492,12.327-21.9c1.879-.894,5.042.691,6.976,2.6l-.007.019v-.016Zm9.516-2.12a3.085,3.085,0,0,0-2.3-2.464c-2.18-.252-5.621,3.606-5.377,4.521.245.934,5.1,2.539,6.906,1.239a3.088,3.088,0,0,0,.753-3.269l.02-.027ZM24.1.214c1.622.439,3.259,1.554,3.454,3.225C27.91,6.5,22.5,11.319,21.22,10.973s-3.545-7.155-1.718-9.7c.941-1.316,2.98-1.5,4.6-1.067V.214h0Z" transform="translate(-1.872)" fill="#373737"/></svg>